<svg xmlns="http://www.w3.org/2000/svg" xmlns:xlink="http://www.w3.org/1999/xlink" xmlns:lucid="lucid" width="685.5" height="677.6"><g transform="translate(-327.25 -62.39999999999999)" lucid:page-tab-id="0_0"><path d="M400 140h160v120H400z" stroke="#000" stroke-width="2" fill="#fff"/><use xlink:href="#a" transform="matrix(1,0,0,1,405,145) translate(1.125 58.6)"/><use xlink:href="#b" transform="matrix(1,0,0,1,405,145) translate(88.97500000000001 58.6)"/><path d="M780 140h160v120H780z" stroke="#000" stroke-width="2" fill="#fff"/><use xlink:href="#c" transform="matrix(1,0,0,1,785,145) translate(19.549999999999997 58.6)"/><use xlink:href="#b" transform="matrix(1,0,0,1,785,145) translate(70.55 58.6)"/><path d="M601.6 380h160v120h-160z" stroke="#000" stroke-width="2" fill="#fff"/><use xlink:href="#d" transform="matrix(1,0,0,1,606.5999999999999,385) translate(50.525 58.6)"/><path d="M741.6 708c0 6.63-26.86 12-60 12s-60-5.37-60-12v-96c0-6.63 26.86-12 60-12s60 5.37 60 12z" stroke="#000" stroke-width="2" fill="#fff"/><path d="M741.6 612c0 6.63-26.86 12-60 12s-60-5.37-60-12" stroke="#000" stroke-width="2" fill="none"/><use xlink:href="#e" transform="matrix(1,0,0,1,626.5999999999999,629) translate(34.575 46.6)"/><path d="M481 439h4.2v2H479V262h2zm101.1 0v2h-53.96v-2z"/><path d="M481 262.03h-2V261h2zM597.36 440l-14.26 4.64v-9.28z"/><path d="M600.6 440l-18.5 6v-12zm-16.5 3.26l10.03-3.26-10.03-3.26z"/><use xlink:href="#f" transform="matrix(1,0,0,1,485.19166666666666,429.2) translate(0 14.4)"/><path d="M789.2 441h-8.1v-2h8.1zm71.8 0h-28.86v-2H859V262h2z"/><path d="M861 262.03h-2V261h2zM780.1 444.64L765.84 440l14.26-4.64z"/><path d="M781.1 446l-18.5-6 18.5-6zm-12.03-6l10.03 3.26v-6.52z"/><use xlink:href="#f" transform="matrix(1,0,0,1,789.1916666666666,429.2) translate(0 14.4)"/><path d="M682.6 580.5h-2v-13.03h2zm0-34.63h-2V502h2z"/><path d="M682.6 502.03h-2V501h2zM681.6 595.76l-4.64-14.26h9.28z"/><path d="M681.6 599l-6-18.5h12zm-3.26-16.5l3.26 10.03 3.26-10.03z"/><use xlink:href="#f" transform="matrix(1,0,0,1,660.1249999999999,545.8666666666667) translate(0 14.4)"/><path d="M982 661H761.1v-2H980V495.47h2zm0-187.13h-2V201h-38v-2h40z"/><path d="M942.03 201H941v-2h1.03zM760.1 664.64L745.84 660l14.26-4.64z"/><path d="M761.1 666l-18.5-6 18.5-6zm-12.03-6l10.03 3.26v-6.52z"/><use xlink:href="#g" transform="matrix(1,0,0,1,960.25,473.8666666666667) translate(0 14.4)"/><path d="M360 659h242.1v2H358V435.47h2zm38-458h-38v212.87h-2V199h40z"/><path d="M399 201h-1.03v-2H399zM617.36 660l-14.26 4.64v-9.28z"/><path d="M620.6 660l-18.5 6v-12zm-16.5 3.26l10.03-3.26-10.03-3.26z"/><use xlink:href="#g" transform="matrix(1,0,0,1,338.25,413.8666666666667) translate(0 14.4)"/><path d="M562 200h198.5" fill="none"/><path d="M562 200h9.45m9.45 0h18.9m9.46 0h18.9m9.46 0h18.9m9.46 0h18.9m9.45 0h18.9m9.46 0h18.9m9.45 0h9.45" stroke="#000" stroke-width="2" fill="none"/><path d="M562.03 201H561v-2h1.03z"/><path d="M775.76 200l-14.26 4.64v-9.28z" stroke="#000" stroke-width="2"/><use xlink:href="#h" transform="matrix(1,0,0,1,618.05,174.39999999999998) translate(0 14.4)"/><use xlink:href="#i" transform="matrix(1,0,0,1,618.05,174.39999999999998) translate(59.900000000000006 14.4)"/><path d="M796 138V99h129.33v21.5" fill="none"/><path d="M796 138v-10.55m0-10.54V99h3.18m10.55 0h21.1m10.54 0h21.1M873 99h21.1m10.55 0h20.68v.4m0 10.55v10.55" stroke="#000" stroke-width="2" fill="none"/><path d="M797 139h-2v-1.03h2z"/><path d="M925.33 135.76l-4.63-14.26h9.27z" stroke="#000" stroke-width="2"/><g><use xlink:href="#h" transform="matrix(1,0,0,1,804.2166666666666,73.39999999999999) translate(0.005000000000002558 14.4)"/><use xlink:href="#j" transform="matrix(1,0,0,1,804.2166666666666,73.39999999999999) translate(59.90500000000001 14.4)"/></g><defs><path d="M212-179c-10-28-35-45-73-45-59 0-87 40-87 99 0 60 29 101 89 101 43 0 62-24 78-52l27 14C228-24 195 4 139 4 59 4 22-46 18-125c-6-104 99-153 187-111 19 9 31 26 39 46" id="k"/><path d="M100-194c62-1 85 37 85 99 1 63-27 99-86 99S16-35 15-95c0-66 28-99 85-99zM99-20c44 1 53-31 53-75 0-43-8-75-51-75s-53 32-53 75 10 74 51 75" id="l"/><path d="M210-169c-67 3-38 105-44 169h-31v-121c0-29-5-50-35-48C34-165 62-65 56 0H25l-1-190h30c1 10-1 24 2 32 10-44 99-50 107 0 11-21 27-35 58-36 85-2 47 119 55 194h-31v-121c0-29-5-49-35-48" id="m"/><path d="M141-36C126-15 110 5 73 4 37 3 15-17 15-53c-1-64 63-63 125-63 3-35-9-54-41-54-24 1-41 7-42 31l-33-3c5-37 33-52 76-52 45 0 72 20 72 64v82c-1 20 7 32 28 27v20c-31 9-61-2-59-35zM48-53c0 20 12 33 32 33 41-3 63-29 60-74-43 2-92-5-92 41" id="n"/><path d="M117-194c89-4 53 116 60 194h-32v-121c0-31-8-49-39-48C34-167 62-67 57 0H25l-1-190h30c1 10-1 24 2 32 11-22 29-35 61-36" id="o"/><path d="M85-194c31 0 48 13 60 33l-1-100h32l1 261h-30c-2-10 0-23-3-31C134-8 116 4 85 4 32 4 16-35 15-94c0-66 23-100 70-100zm9 24c-40 0-46 34-46 75 0 40 6 74 45 74 42 0 51-32 51-76 0-42-9-74-50-73" id="p"/><g id="a"><use transform="matrix(0.05,0,0,0.05,0,0)" xlink:href="#k"/><use transform="matrix(0.05,0,0,0.05,12.950000000000001,0)" xlink:href="#l"/><use transform="matrix(0.05,0,0,0.05,22.950000000000003,0)" xlink:href="#m"/><use transform="matrix(0.05,0,0,0.05,37.900000000000006,0)" xlink:href="#m"/><use transform="matrix(0.05,0,0,0.05,52.85,0)" xlink:href="#n"/><use transform="matrix(0.05,0,0,0.05,62.85,0)" xlink:href="#o"/><use transform="matrix(0.05,0,0,0.05,72.85000000000001,0)" xlink:href="#p"/></g><path d="M106-169C34-169 62-67 57 0H25v-261h32l-1 103c12-21 28-36 61-36 89 0 53 116 60 194h-32v-121c2-32-8-49-39-48" id="q"/><path d="M24 0v-261h32V0H24" id="r"/><path d="M100-194c63 0 86 42 84 106H49c0 40 14 67 53 68 26 1 43-12 49-29l28 8c-11 28-37 45-77 45C44 4 14-33 15-96c1-61 26-98 85-98zm52 81c6-60-76-77-97-28-3 7-6 17-6 28h103" id="s"/><path d="M114-163C36-179 61-72 57 0H25l-1-190h30c1 12-1 29 2 39 6-27 23-49 58-41v29" id="t"/><g id="b"><use transform="matrix(0.05,0,0,0.05,0,0)" xlink:href="#q"/><use transform="matrix(0.05,0,0,0.05,10,0)" xlink:href="#n"/><use transform="matrix(0.05,0,0,0.05,20,0)" xlink:href="#o"/><use transform="matrix(0.05,0,0,0.05,30,0)" xlink:href="#p"/><use transform="matrix(0.05,0,0,0.05,40,0)" xlink:href="#r"/><use transform="matrix(0.05,0,0,0.05,43.95,0)" xlink:href="#s"/><use transform="matrix(0.05,0,0,0.05,53.95,0)" xlink:href="#t"/></g><path d="M30 0v-248h187v28H63v79h144v27H63v87h162V0H30" id="u"/><path d="M108 0H70L1-190h34L89-25l56-165h34" id="v"/><path d="M59-47c-2 24 18 29 38 22v24C64 9 27 4 27-40v-127H5v-23h24l9-43h21v43h35v23H59v120" id="w"/><g id="c"><use transform="matrix(0.05,0,0,0.05,0,0)" xlink:href="#u"/><use transform="matrix(0.05,0,0,0.05,12,0)" xlink:href="#v"/><use transform="matrix(0.05,0,0,0.05,21,0)" xlink:href="#s"/><use transform="matrix(0.05,0,0,0.05,31,0)" xlink:href="#o"/><use transform="matrix(0.05,0,0,0.05,41,0)" xlink:href="#w"/></g><path d="M140-251c81 0 123 46 123 126C263-53 228-8 163 1c7 30 30 48 69 40v23c-55 16-95-15-103-61C56-3 17-48 17-125c0-80 42-126 123-126zm0 227c63 0 89-41 89-101s-29-99-89-99c-61 0-89 39-89 99S79-25 140-24" id="x"/><path d="M84 4C-5 8 30-112 23-190h32v120c0 31 7 50 39 49 72-2 45-101 50-169h31l1 190h-30c-1-10 1-25-2-33-11 22-28 36-60 37" id="y"/><path d="M179-190L93 31C79 59 56 82 12 73V49c39 6 53-20 64-50L1-190h34L92-34l54-156h33" id="z"/><g id="d"><use transform="matrix(0.05,0,0,0.05,0,0)" xlink:href="#x"/><use transform="matrix(0.05,0,0,0.05,14,0)" xlink:href="#y"/><use transform="matrix(0.05,0,0,0.05,24,0)" xlink:href="#s"/><use transform="matrix(0.05,0,0,0.05,34,0)" xlink:href="#t"/><use transform="matrix(0.05,0,0,0.05,39.95,0)" xlink:href="#z"/></g><path d="M233-177c-1 41-23 64-60 70L243 0h-38l-65-103H63V0H30v-248c88 3 205-21 203 71zM63-129c60-2 137 13 137-47 0-61-80-42-137-45v92" id="A"/><path d="M240 0l2-218c-23 76-54 145-80 218h-23L58-218 59 0H30v-248h44l77 211c21-75 51-140 76-211h43V0h-30" id="B"/><g id="e"><use transform="matrix(0.05,0,0,0.05,0,0)" xlink:href="#k"/><use transform="matrix(0.05,0,0,0.05,12.950000000000001,0)" xlink:href="#A"/><use transform="matrix(0.05,0,0,0.05,25.900000000000002,0)" xlink:href="#B"/></g><g id="f"><use transform="matrix(0.05,0,0,0.05,0,0)" xlink:href="#A"/><use transform="matrix(0.05,0,0,0.05,12.950000000000001,0)" xlink:href="#s"/><use transform="matrix(0.05,0,0,0.05,22.950000000000003,0)" xlink:href="#n"/><use transform="matrix(0.05,0,0,0.05,32.95,0)" xlink:href="#p"/></g><path d="M266 0h-40l-56-210L115 0H75L2-248h35L96-30l15-64 43-154h32l59 218 59-218h35" id="C"/><path d="M24-231v-30h32v30H24zM24 0v-190h32V0H24" id="D"/><g id="g"><use transform="matrix(0.05,0,0,0.05,0,0)" xlink:href="#C"/><use transform="matrix(0.05,0,0,0.05,16.599999999999998,0)" xlink:href="#t"/><use transform="matrix(0.05,0,0,0.05,22.549999999999997,0)" xlink:href="#D"/><use transform="matrix(0.05,0,0,0.05,26.499999999999996,0)" xlink:href="#w"/><use transform="matrix(0.05,0,0,0.05,31.499999999999996,0)" xlink:href="#s"/></g><path d="M135-143c-3-34-86-38-87 0 15 53 115 12 119 90S17 21 10-45l28-5c4 36 97 45 98 0-10-56-113-15-118-90-4-57 82-63 122-42 12 7 21 19 24 35" id="E"/><g id="h"><use transform="matrix(0.05,0,0,0.05,0,0)" xlink:href="#A"/><use transform="matrix(0.05,0,0,0.05,12.950000000000001,0)" xlink:href="#n"/><use transform="matrix(0.05,0,0,0.05,22.950000000000003,0)" xlink:href="#D"/><use transform="matrix(0.05,0,0,0.05,26.900000000000002,0)" xlink:href="#E"/><use transform="matrix(0.05,0,0,0.05,35.900000000000006,0)" xlink:href="#s"/><use transform="matrix(0.05,0,0,0.05,45.900000000000006,0)" xlink:href="#E"/></g><g id="i"><use transform="matrix(0.05,0,0,0.05,0,0)" xlink:href="#s"/><use transform="matrix(0.05,0,0,0.05,10,0)" xlink:href="#v"/><use transform="matrix(0.05,0,0,0.05,19,0)" xlink:href="#s"/><use transform="matrix(0.05,0,0,0.05,29,0)" xlink:href="#o"/><use transform="matrix(0.05,0,0,0.05,39,0)" xlink:href="#w"/></g><g id="j"><use transform="matrix(0.05,0,0,0.05,0,0)" xlink:href="#s"/><use transform="matrix(0.05,0,0,0.05,10,0)" xlink:href="#v"/><use transform="matrix(0.05,0,0,0.05,19,0)" xlink:href="#s"/><use transform="matrix(0.05,0,0,0.05,29,0)" xlink:href="#o"/><use transform="matrix(0.05,0,0,0.05,39,0)" xlink:href="#w"/><use transform="matrix(0.05,0,0,0.05,44,0)" xlink:href="#E"/></g></defs></g></svg>